REM MD5 e9055911deafc8ffe785694a68e64a88
FILE "Family 1500 Series - Mahjong (Japan).bin" BINARY
  TRACK 01 MODE2/2352
    INDEX 01 00:00:00
  TRACK 02 AUDIO
    INDEX 00 00:16:66
    INDEX 01 00:18:66
  TRACK 03 AUDIO
    INDEX 00 00:23:02
    INDEX 01 00:25:02
  TRACK 04 AUDIO
    INDEX 00 00:29:10
    INDEX 01 00:31:10
  TRACK 05 AUDIO
    INDEX 00 00:35:21
    INDEX 01 00:37:21
REM LEADOUT 03:35:47
